<svg width="25" height="34" viewBox="0 0 25 34" fill="none" xmlns="http://www.w3.org/2000/svg">
<path d="M6.80775 21.5C6.30258 21.5 5.875 21.325 5.525 20.975C5.175 20.625 5 20.1974 5 19.6923V4.30775C5 3.80258 5.175 3.375 5.525 3.025C5.875 2.675 6.30258 2.5 6.80775 2.5H14.002C14.243 2.5 14.4748 2.54683 14.6973 2.6405C14.9196 2.734 15.1128 2.86283 15.277 3.027L19.473 7.223C19.6372 7.38717 19.766 7.58042 19.8595 7.80275C19.9532 8.02525 20 8.257 20 8.498V19.6923C20 20.1974 19.825 20.625 19.475 20.975C19.125 21.325 18.6974 21.5 18.1923 21.5H6.80775ZM14 7.596V4H6.80775C6.73075 4 6.66025 4.03208 6.59625 4.09625C6.53208 4.16025 6.5 4.23075 6.5 4.30775V19.6923C6.5 19.7693 6.53208 19.8398 6.59625 19.9038C6.66025 19.9679 6.73075 20 6.80775 20H18.1923C18.2692 20 18.3398 19.9679 18.4038 19.9038C18.4679 19.8398 18.5 19.7693 18.5 19.6923V8.5H14.904C14.6462 8.5 14.4311 8.41375 14.2587 8.24125C14.0862 8.06892 14 7.85383 14 7.596Z" fill="#C8C8C8"/>
<path d="M7.78516 25.6875V28.5156H8.91016V29.0312H7.78516V32.6328H7.17578V25.6875H7.78516ZM5.98828 26.4375C5.98828 28.4062 5.06641 30.1953 2.80078 31.3125L2.45703 30.8281C4.25391 29.9336 5.23047 28.5977 5.37109 26.9531H2.77734V26.4375H5.98828ZM15.0508 25.6875V32.6484H14.4336V25.6875H15.0508ZM11.3555 26.2266C12.3867 26.2344 13.1289 27.1719 13.1289 28.6484C13.1289 30.125 12.3867 31.0625 11.3555 31.0625C10.3164 31.0625 9.58203 30.125 9.58203 28.6484C9.58203 27.1719 10.3164 26.2344 11.3555 26.2266ZM11.3555 26.7734C10.6602 26.7812 10.1758 27.5156 10.1758 28.6484C10.1758 29.7812 10.6602 30.5156 11.3555 30.5156C12.0508 30.5156 12.5352 29.7812 12.5352 28.6484C12.5352 27.5156 12.0508 26.7812 11.3555 26.7734ZM21.8477 29.0312V29.5391H17.0508V26.3359H21.7773V26.8438H17.6602V29.0312H21.8477ZM22.5977 31.1719V31.6875H16.2383V31.1719H22.5977Z" fill="#C8C8C8"/>
</svg>
