<svg width="25" height="32" viewBox="0 0 25 32" fill="none" xmlns="http://www.w3.org/2000/svg">
<path d="M6.5 16.5H9.5V10.5H15.5V16.5H18.5V7.5L12.5 3L6.5 7.5V16.5ZM4.5 18.5V6.5L12.5 0.5L20.5 6.5V18.5H13.5V12.5H11.5V18.5H4.5Z" fill="#C8C8C8"/>
<path d="M8.78125 24V25.8125H9.83594V23.3359H10.4219V29.7812H9.83594V26.3203H8.78125V28.2656H6.125V24H8.78125ZM6.70312 24.4922V27.7734H8.20312V24.4922H6.70312ZM11.8203 23.1875V30.1328H11.2266V23.1875H11.8203ZM18.5156 23.1953V28.2734H17.9062V23.1953H18.5156ZM18.7344 29.4688V29.9844H14.0312V27.7578H14.6406V29.4688H18.7344ZM14.7656 23.6797C15.8047 23.6797 16.5859 24.3828 16.5859 25.3828C16.5859 26.3984 15.8047 27.0938 14.7656 27.0938C13.7266 27.0938 12.9453 26.3984 12.9453 25.3828C12.9453 24.3828 13.7266 23.6797 14.7656 23.6797ZM14.7656 24.2188C14.0625 24.2188 13.5391 24.7031 13.5469 25.3828C13.5391 26.0781 14.0625 26.5547 14.7656 26.5547C15.4531 26.5547 15.9844 26.0781 15.9844 25.3828C15.9844 24.7031 15.4531 24.2188 14.7656 24.2188Z" fill="#C8C8C8"/>
</svg>
