<svg width="25" height="34" viewBox="0 0 25 34" fill="none" xmlns="http://www.w3.org/2000/svg">
<path d="M5.57304 20.75C5.06804 20.75 4.64054 20.575 4.29054 20.225C3.94054 19.875 3.76554 19.4474 3.76554 18.9423V10.9538C3.36288 10.6231 3.06063 10.1939 2.85879 9.66625C2.65679 9.13875 2.65263 8.56925 2.84629 7.95775L3.85779 4.65375C3.99113 4.23325 4.21738 3.89417 4.53654 3.6365C4.85588 3.37883 5.23729 3.25 5.68079 3.25H19.3308C19.7745 3.25 20.1533 3.37308 20.4673 3.61925C20.7815 3.86542 21.0103 4.20392 21.1538 4.63475L22.1845 7.95775C22.3782 8.56925 22.374 9.13683 22.172 9.6605C21.9702 10.1843 21.668 10.6218 21.2653 10.973V18.9423C21.2653 19.4474 21.0903 19.875 20.7403 20.225C20.3903 20.575 19.9628 20.75 19.4578 20.75H5.57304ZM14.7155 10.25C15.2617 10.25 15.6723 10.083 15.9473 9.749C16.2223 9.415 16.3348 9.05633 16.2848 8.673L15.677 4.75H13.2653V8.7C13.2653 9.1205 13.4076 9.484 13.6923 9.7905C13.977 10.0968 14.318 10.25 14.7155 10.25ZM10.2155 10.25C10.6757 10.25 11.049 10.0968 11.3355 9.7905C11.6222 9.484 11.7655 9.1205 11.7655 8.7V4.75H9.35379L8.74629 8.7115C8.69229 9.06667 8.80379 9.41192 9.08079 9.74725C9.35779 10.0824 9.73604 10.25 10.2155 10.25ZM5.76554 10.25C6.13604 10.25 6.45463 10.1208 6.72129 9.8625C6.98796 9.60417 7.15271 9.2795 7.21554 8.8885L7.80379 4.75H5.68079C5.57179 4.75 5.48529 4.774 5.42129 4.822C5.35713 4.87017 5.30904 4.94233 5.27704 5.0385L4.31529 8.29225C4.18329 8.72175 4.24554 9.15542 4.50204 9.59325C4.75838 10.0311 5.17954 10.25 5.76554 10.25ZM19.2655 10.25C19.8065 10.25 20.2206 10.0375 20.5078 9.6125C20.795 9.1875 20.8642 8.74742 20.7155 8.29225L19.7038 5.01925C19.6718 4.92308 19.6238 4.85417 19.5598 4.8125C19.4956 4.77083 19.409 4.75 19.3 4.75H17.227L17.8153 8.8885C17.8781 9.2795 18.0429 9.60417 18.3095 9.8625C18.5762 10.1208 18.8949 10.25 19.2655 10.25ZM5.57304 19.25H19.4578C19.5475 19.25 19.6211 19.2212 19.6788 19.1635C19.7366 19.1058 19.7655 19.0321 19.7655 18.9423V11.6615C19.6565 11.7013 19.5655 11.726 19.4923 11.7355C19.4193 11.7452 19.3437 11.75 19.2655 11.75C18.8155 11.75 18.4197 11.6686 18.078 11.5058C17.7364 11.3429 17.4052 11.082 17.0845 10.723C16.8039 11.0358 16.4719 11.2853 16.0885 11.4713C15.7052 11.6571 15.268 11.75 14.777 11.75C14.3527 11.75 13.9527 11.6618 13.577 11.4855C13.2014 11.3093 12.8475 11.0552 12.5155 10.723C12.2065 11.0552 11.8565 11.3093 11.4655 11.4855C11.0744 11.6618 10.6782 11.75 10.277 11.75C9.82571 11.75 9.40263 11.6683 9.00779 11.5048C8.61296 11.3413 8.26554 11.0807 7.96554 10.723C7.54488 11.1435 7.15729 11.4198 6.80279 11.552C6.44846 11.684 6.10271 11.75 5.76554 11.75C5.68721 11.75 5.60638 11.7452 5.52304 11.7355C5.43971 11.726 5.35379 11.7013 5.26529 11.6615V18.9423C5.26529 19.0321 5.29421 19.1058 5.35204 19.1635C5.40971 19.2212 5.48338 19.25 5.57304 19.25Z" fill="#C8C8C8"/>
<path d="M8.1875 26.8125C8.1875 27.7578 8.90625 28.625 9.91406 28.9688L9.57812 29.4531C8.80859 29.1719 8.20312 28.5977 7.89844 27.875C7.60156 28.6914 6.98438 29.3359 6.17188 29.6484L5.84375 29.1562C6.88281 28.7656 7.57812 27.8359 7.58594 26.7656V26.0469H8.1875V26.8125ZM11.2969 25.6875V27.5H12.3438V28.0156H11.2969V29.9141H10.6875V25.6875H11.2969ZM9.07031 30.0938C10.5 30.0938 11.3594 30.5547 11.3594 31.3516C11.3594 32.1641 10.5 32.6172 9.07031 32.6172C7.64062 32.6172 6.76562 32.1641 6.76562 31.3516C6.76562 30.5547 7.64062 30.0938 9.07031 30.0938ZM9.07031 30.5859C8.02344 30.5859 7.375 30.875 7.38281 31.3516C7.375 31.8438 8.02344 32.125 9.07031 32.1328C10.125 32.125 10.7656 31.8438 10.7656 31.3516C10.7656 30.875 10.125 30.5859 9.07031 30.5859ZM18.5391 25.6875V29.7578H17.9219V27.9453H16.5156V27.4297H17.9219V25.6875H18.5391ZM18.5391 30.1016V32.5391H14V30.1016H18.5391ZM14.6094 30.5938V32.0391H17.9375V30.5938H14.6094ZM15.1953 26.9219C15.1953 27.8203 15.8906 28.6875 16.9062 29.0469L16.5859 29.5312C15.8008 29.25 15.1953 28.6641 14.8984 27.9453C14.5977 28.7461 13.957 29.3867 13.1328 29.6875L12.8125 29.2031C13.8359 28.8359 14.5781 27.9141 14.5781 26.9219V26.6484H13.0078V26.1406H16.75V26.6484H15.1953V26.9219Z" fill="#C8C8C8"/>
</svg>
