<svg width="25" height="34" viewBox="0 0 25 34" fill="none" xmlns="http://www.w3.org/2000/svg">
<path d="M5.69227 21.6153C5.18727 21.6153 4.75977 21.4403 4.40977 21.0903C4.05977 20.7403 3.88477 20.3128 3.88477 19.8078V16.6136C3.88477 16.3994 3.9216 16.1869 3.99527 15.9761C4.06893 15.7652 4.18268 15.5777 4.33652 15.4136L6.33852 13.1538C6.47702 12.9885 6.65518 12.9032 6.87302 12.8981C7.09102 12.8931 7.2776 12.9681 7.43277 13.1231C7.57127 13.2616 7.6456 13.4289 7.65577 13.6251C7.6661 13.8212 7.60202 13.9969 7.46352 14.1521L5.49227 16.3848H19.5078L17.5865 14.2021C17.448 14.0469 17.3839 13.8712 17.3943 13.6751C17.4044 13.4789 17.4788 13.3116 17.6173 13.1731C17.7724 13.0181 17.959 12.9431 18.177 12.9481C18.3948 12.9532 18.573 13.0385 18.7115 13.2038L20.6635 15.4136C20.8173 15.5777 20.9311 15.7652 21.0048 15.9761C21.0784 16.1869 21.1153 16.3994 21.1153 16.6136V19.8078C21.1153 20.3128 20.9403 20.7403 20.5903 21.0903C20.2403 21.4403 19.8128 21.6153 19.3078 21.6153H5.69227ZM5.69227 20.1156H19.3078C19.3911 20.1156 19.4632 20.0851 19.524 20.0241C19.585 19.9632 19.6155 19.8911 19.6155 19.8078V17.8846H5.38452V19.8078C5.38452 19.8911 5.41502 19.9632 5.47602 20.0241C5.53685 20.0851 5.60893 20.1156 5.69227 20.1156ZM11.2598 14.1443L8.00402 10.8693C7.65268 10.518 7.48118 10.092 7.48952 9.5913C7.49785 9.0908 7.67768 8.66488 8.02902 8.31355L12.6693 3.67305C13.0206 3.32188 13.4475 3.14113 13.95 3.1308C14.4525 3.12063 14.8794 3.29113 15.2308 3.6423L18.496 6.9078C18.8473 7.25913 19.0282 7.68088 19.0385 8.17305C19.0487 8.66538 18.8782 9.08722 18.527 9.43855L13.8058 14.1596C13.4544 14.5109 13.0301 14.684 12.5328 14.6788C12.0353 14.6738 11.6109 14.4956 11.2598 14.1443ZM17.4328 8.4098C17.4839 8.35847 17.5095 8.28472 17.5095 8.18855C17.5095 8.09238 17.4839 8.01863 17.4328 7.9673L14.1865 4.7213C14.1353 4.66997 14.0617 4.6443 13.9655 4.6443C13.8693 4.6443 13.7956 4.66997 13.7443 4.7213L9.07302 9.3923C9.02185 9.44363 8.99627 9.51738 8.99627 9.61355C8.99627 9.70972 9.02185 9.78347 9.07302 9.8348L12.3193 13.0808C12.3706 13.1321 12.4443 13.1578 12.5405 13.1578C12.6367 13.1578 12.7103 13.1321 12.7615 13.0808L17.4328 8.4098Z" fill="#C8C8C8"/>
<path d="M12.2188 29.8984V30.4062H9.32812V32.6328H8.72656V30.4062H5.85938V29.8984H12.2188ZM11.5 28.6797V29.1797H6.71094V26.0156H11.4219V26.5156H7.32031V27.3281H11.2578V27.8203H7.32031V28.6797H11.5ZM19.1406 31.2734V31.7812H12.7812V31.2734H14.5547V29.6172H13.3594V29.1094H14.4453V26.8438H13.3438V26.3359H18.5312V26.8438H17.4297V29.1094H18.5156V29.6172H17.3203V31.2734H19.1406ZM15.0547 29.1094H16.8281V26.8438H15.0547V29.1094ZM15.1719 31.2734H16.7109V29.6172H15.1719V31.2734Z" fill="#C8C8C8"/>
</svg>
